<svg width="70" height="55" viewBox="0 0 70 55" fill="none" xmlns="http://www.w3.org/2000/svg">
<path d="M28.3293 31H22.2693V22.336H28.3293V23.368H23.4213V26.164H27.5853V27.172H23.4213V29.968H28.3293V31ZM31.3689 31H30.2169V22.336H31.5849L34.0929 25.984C34.2129 26.168 34.3849 26.424 34.6089 26.752C34.8329 27.072 35.0609 27.396 35.2929 27.724C35.5249 28.052 35.7369 28.356 35.9289 28.636C36.1209 28.908 36.2449 29.092 36.3009 29.188H36.3249C36.3169 28.916 36.3089 28.616 36.3009 28.288C36.3009 27.96 36.3009 27.632 36.3009 27.304C36.3009 26.968 36.3009 26.644 36.3009 26.332C36.3009 26.012 36.3009 25.732 36.3009 25.492V22.336H37.4529V31H36.2649L33.4449 27.016C33.3569 26.888 33.2129 26.676 33.0129 26.38C32.8129 26.076 32.6009 25.76 32.3769 25.432C32.1609 25.104 31.9569 24.792 31.7649 24.496C31.5729 24.2 31.4449 23.988 31.3809 23.86H31.3569C31.3649 24.084 31.3689 24.372 31.3689 24.724C31.3689 25.076 31.3689 25.44 31.3689 25.816C31.3689 26.192 31.3689 26.556 31.3689 26.908C31.3689 27.252 31.3689 27.528 31.3689 27.736V31Z" fill="#141615"/>
<g clip-path="url(#clip0_1_147)">
<mask id="mask0_1_147" style="mask-type:alpha" maskUnits="userSpaceOnUse" x="39" y="18" width="11" height="19">
<path d="M49.02 18.75H39.52V36.25H49.02V18.75Z" fill="white"/>
</mask>
<g mask="url(#mask0_1_147)">
<path fill-rule="evenodd" clip-rule="evenodd" d="M39.52 18.75V36.25H49.02V18.75H39.52Z" fill="#2E42A5"/>
<path d="M38.4624 34.9997L40.5529 37.1711L49.0677 21.1109L50.1703 17.884L47.9349 17.1582L44.4619 24.0791L41.6665 28.7421L38.4624 34.9997Z" fill="white"/>
<path d="M38.7483 36.521L39.8133 37.7811L49.7741 17.584H48.2787L38.7483 36.521Z" fill="#F50100"/>
<path d="M50.0775 34.9997L47.987 37.1711L39.4723 21.1109L38.3696 17.884L40.6051 17.1582L44.0781 24.0791L46.8735 28.7421L50.0775 34.9997Z" fill="white"/>
<path d="M50.0064 36.0916L48.9414 37.3518L44.7 28.7044L43.4425 27.7382L38.2637 17.895H39.7591L44.935 27.5045L46.3098 28.6631L50.0064 36.0916Z" fill="#F50100"/>
<mask id="mask1_1_147" style="mask-type:alpha" maskUnits="userSpaceOnUse" x="38" y="17" width="12" height="21">
<path fill-rule="evenodd" clip-rule="evenodd" d="M45.3919 17.2915H43.1489V24.5832H38.9348V30.4165H43.1489V37.7082H45.3919V30.4165H49.6223V24.5832H45.3919V17.2915Z" fill="white"/>
</mask>
<g mask="url(#mask1_1_147)">
<path fill-rule="evenodd" clip-rule="evenodd" d="M45.3919 17.2915H43.1489V24.5832H38.9348V30.4165H43.1489V37.7082H45.3919V30.4165H49.6223V24.5832H45.3919V17.2915Z" fill="#F50100"/>
<path d="M43.1489 17.2913V15.833H42.5551V17.2913H43.1489ZM45.3919 17.2913H45.9856V15.833H45.3919V17.2913ZM43.1489 24.583V26.0413H43.7426V24.583H43.1489ZM38.9348 24.583V23.1247H38.3411V24.583H38.9348ZM38.9348 30.4163H38.3411V31.8747H38.9348V30.4163ZM43.1489 30.4163H43.7426V28.958H43.1489V30.4163ZM43.1489 37.708H42.5551V39.1663H43.1489V37.708ZM45.3919 37.708V39.1663H45.9856V37.708H45.3919ZM45.3919 30.4163V28.958H44.7981V30.4163H45.3919ZM49.6223 30.4163V31.8747H50.216V30.4163H49.6223ZM49.6223 24.583H50.216V23.1247H49.6223V24.583ZM45.3919 24.583H44.7981V26.0413H45.3919V24.583ZM43.1489 18.7497H45.3919V15.833H43.1489V18.7497ZM43.7426 24.583V17.2913H42.5551V24.583H43.7426ZM38.9348 26.0413H43.1489V23.1247H38.9348V26.0413ZM39.5286 30.4163V24.583H38.3411V30.4163H39.5286ZM43.1489 28.958H38.9348V31.8747H43.1489V28.958ZM43.7426 37.708V30.4163H42.5551V37.708H43.7426ZM45.3919 36.2497H43.1489V39.1663H45.3919V36.2497ZM44.7981 30.4163V37.708H45.9856V30.4163H44.7981ZM49.6223 28.958H45.3919V31.8747H49.6223V28.958ZM49.0285 24.583V30.4163H50.216V24.583H49.0285ZM45.3919 26.0413H49.6223V23.1247H45.3919V26.0413ZM44.7981 17.2913V24.583H45.9856V17.2913H44.7981Z" fill="white"/>
</g>
</g>
</g>
<defs>
<clipPath id="clip0_1_147">
<rect width="9.5" height="15" fill="white" transform="translate(39.52 20)"/>
</clipPath>
</defs>
</svg>
